<svg width="222" height="167" viewBox="0 0 222 167" fill="none" xmlns="http://www.w3.org/2000/svg">
<path d="M203.5 0H18.5C8.4175 0.37 0.37 8.4175 0 18.5V148C0.37 158.083 8.4175 166.13 18.5 166.5H203.5C213.583 166.13 221.63 158.083 222 148V18.5C221.83 13.6477 219.826 9.04042 216.393 5.60721C212.96 2.174 208.352 0.17025 203.5 0ZM203.5 148H18.5V18.5H203.5V148ZM129.5 129.5V117.938C129.5 102.583 98.605 94.8125 83.25 94.8125C67.895 94.8125 37 102.583 37 117.938V129.5H129.5ZM83.25 37C77.1169 37 71.2349 39.4364 66.8982 43.7732C62.5614 48.1099 60.125 53.9919 60.125 60.125C60.125 63.1618 60.7231 66.1689 61.8853 68.9746C63.0474 71.7802 64.7508 74.3295 66.8982 76.4768C71.2349 80.8136 77.1169 83.25 83.25 83.25C86.2868 83.25 89.2939 82.6519 92.0996 81.4897C94.9052 80.3276 97.4545 78.6242 99.6018 76.4768C101.749 74.3295 103.453 71.7802 104.615 68.9746C105.777 66.1689 106.375 63.1618 106.375 60.125C106.375 57.0882 105.777 54.0811 104.615 51.2754C103.453 48.4698 101.749 45.9205 99.6018 43.7732C97.4545 41.6258 94.9052 39.9224 92.0996 38.7603C89.2939 37.5981 86.2868 37 83.25 37ZM129.5 37V46.25H185V37H129.5ZM129.5 55.5V64.75H185V55.5H129.5ZM129.5 74V83.25H166.5V74H129.5Z" fill="#DED27C"/>
</svg>
